<svg xmlns="http://www.w3.org/2000/svg" version="1.1" xmlns:xlink="http://www.w3.org/1999/xlink"
  xmlns:svgjs="http://svgjs.dev/svgjs" width="512" height="512">
  <svg width="512" height="512" viewBox="0 0 512 512" fill="none" xmlns="http://www.w3.org/2000/svg">
    <rect width="512" height="512" rx="256" fill="#0A0A0F"></rect>
    <rect width="512" height="512" rx="256" fill="url(#paint0_linear_1_4)"></rect>
    <path
      d="M242 334C234.667 334 229.042 333.167 225.125 331.5C221.208 329.833 218.542 327.583 217.125 324.75C215.708 322 215 318.917 215 315.5C215 311.333 215.5 307 216.5 302.5C217.583 298 218.125 293.917 218.125 290.25C218.125 286.583 216.875 283.583 214.375 281.25C211.875 278.833 208.083 277.458 203 277.125V267.875C208.083 267.542 211.875 266.167 214.375 263.75C216.875 261.333 218.125 258.333 218.125 254.75C218.125 251.083 217.583 247 216.5 242.5C215.5 237.917 215 233.583 215 229.5C215 226.083 215.708 223 217.125 220.25C218.542 217.417 221.208 215.167 225.125 213.5C229.042 211.833 234.667 211 242 211V220.25C236.083 220.25 232.083 221.25 230 223.25C228 225.167 227 227.708 227 230.875C227 234.208 227.5 237.917 228.5 242C229.583 246 230.125 249.958 230.125 253.875C230.125 257.292 229.292 260.5 227.625 263.5C226.042 266.5 222.833 269 218 271V274C222.833 276 226.042 278.5 227.625 281.5C229.292 284.5 230.125 287.708 230.125 291.125C230.125 295.042 229.583 299.042 228.5 303.125C227.5 307.125 227 310.792 227 314.125C227 317.208 228 319.75 230 321.75C232 323.75 236 324.75 242 324.75V334Z"
      fill="white" fill-opacity="0.5"></path>
    <path
      d="M269 179C276.333 179 281.958 179.833 285.875 181.5C289.792 183.167 292.458 185.417 293.875 188.25C295.292 191 296 194.083 296 197.5C296 201.667 295.5 206 294.5 210.5C293.417 215 292.875 219.083 292.875 222.75C292.875 226.417 294.125 229.417 296.625 231.75C299.125 234.167 302.917 235.542 308 235.875V245.125C302.917 245.458 299.125 246.833 296.625 249.25C294.125 251.667 292.875 254.667 292.875 258.25C292.875 261.917 293.417 266 294.5 270.5C295.5 275.083 296 279.417 296 283.5C296 286.917 295.292 290 293.875 292.75C292.458 295.583 289.792 297.833 285.875 299.5C281.958 301.167 276.333 302 269 302V292.75C274.917 292.75 278.917 291.75 281 289.75C283 287.833 284 285.292 284 282.125C284 278.792 283.5 275.083 282.5 271C281.417 267 280.875 263.042 280.875 259.125C280.875 255.708 281.708 252.5 283.375 249.5C284.958 246.5 288.167 244 293 242V239C288.167 237 284.958 234.5 283.375 231.5C281.708 228.5 280.875 225.292 280.875 221.875C280.875 217.958 281.417 213.958 282.5 209.875C283.5 205.875 284 202.208 284 198.875C284 195.792 283 193.25 281 191.25C279 189.25 275 188.25 269 188.25V179Z"
      fill="white" fill-opacity="0.5"></path>
    <path
      d="M204.5 372C193.5 372 185.063 370.75 179.188 368.25C173.313 365.75 169.313 362.375 167.188 358.125C165.063 354 164 349.375 164 344.25C164 338 164.75 331.5 166.25 324.75C167.875 318 168.687 311.875 168.687 306.375C168.687 300.875 166.813 296.375 163.063 292.875C159.313 289.25 153.625 287.187 146 286.688V272.812C153.625 272.313 159.313 270.25 163.063 266.625C166.813 263 168.687 258.5 168.687 253.125C168.687 247.625 167.875 241.5 166.25 234.75C164.75 227.875 164 221.375 164 215.25C164 210.125 165.063 205.5 167.188 201.375C169.313 197.125 173.313 193.75 179.188 191.25C185.063 188.75 193.5 187.5 204.5 187.5V201.375C195.625 201.375 189.625 202.875 186.5 205.875C183.5 208.75 182 212.562 182 217.312C182 222.312 182.75 227.875 184.25 234C185.875 240 186.687 245.937 186.687 251.812C186.687 256.937 185.437 261.75 182.937 266.25C180.562 270.75 175.75 274.5 168.5 277.5V282C175.75 285 180.562 288.75 182.937 293.25C185.437 297.75 186.687 302.563 186.687 307.688C186.687 313.563 185.875 319.563 184.25 325.687C182.75 331.687 182 337.187 182 342.187C182 346.813 183.5 350.625 186.5 353.625C189.5 356.625 195.5 358.125 204.5 358.125V372Z"
      fill="white" fill-opacity="0.75"></path>
    <path
      d="M306.5 140C317.5 140 325.937 141.25 331.812 143.75C337.687 146.25 341.687 149.625 343.812 153.875C345.937 158 347 162.625 347 167.75C347 174 346.25 180.5 344.75 187.25C343.125 194 342.313 200.125 342.313 205.625C342.313 211.125 344.187 215.625 347.937 219.125C351.687 222.75 357.375 224.813 365 225.312V239.188C357.375 239.687 351.687 241.75 347.937 245.375C344.187 249 342.313 253.5 342.313 258.875C342.313 264.375 343.125 270.5 344.75 277.25C346.25 284.125 347 290.625 347 296.75C347 301.875 345.937 306.5 343.812 310.625C341.687 314.875 337.687 318.25 331.812 320.75C325.937 323.25 317.5 324.5 306.5 324.5V310.625C315.375 310.625 321.375 309.125 324.5 306.125C327.5 303.25 329 299.438 329 294.688C329 289.688 328.25 284.125 326.75 278C325.125 272 324.313 266.063 324.313 260.188C324.313 255.063 325.563 250.25 328.063 245.75C330.438 241.25 335.25 237.5 342.5 234.5V230C335.25 227 330.438 223.25 328.063 218.75C325.563 214.25 324.313 209.437 324.313 204.312C324.313 198.437 325.125 192.437 326.75 186.313C328.25 180.313 329 174.813 329 169.813C329 165.187 327.5 161.375 324.5 158.375C321.5 155.375 315.5 153.875 306.5 153.875V140Z"
      fill="white" fill-opacity="0.75"></path>
    <path
      d="M159 410C144.333 410 133.083 408.333 125.25 405C117.417 401.667 112.083 397.167 109.25 391.5C106.417 386 105 379.833 105 373C105 364.667 106 356 108 347C110.167 338 111.25 329.833 111.25 322.5C111.25 315.167 108.75 309.167 103.75 304.5C98.75 299.667 91.1667 296.917 81 296.25V277.75C91.1667 277.083 98.75 274.333 103.75 269.5C108.75 264.667 111.25 258.667 111.25 251.5C111.25 244.167 110.167 236 108 227C106 217.833 105 209.167 105 201C105 194.167 106.417 188 109.25 182.5C112.083 176.833 117.417 172.333 125.25 169C133.083 165.667 144.333 164 159 164V182.5C147.167 182.5 139.167 184.5 135 188.5C131 192.333 129 197.417 129 203.75C129 210.417 130 217.833 132 226C134.167 234 135.25 241.917 135.25 249.75C135.25 256.583 133.583 263 130.25 269C127.083 275 120.667 280 111 284V290C120.667 294 127.083 299 130.25 305C133.583 311 135.25 317.417 135.25 324.25C135.25 332.083 134.167 340.083 132 348.25C130 356.25 129 363.583 129 370.25C129 376.417 131 381.5 135 385.5C139 389.5 147 391.5 159 391.5V410Z"
      fill="white"></path>
    <path
      d="M352.121 101.219C366.787 101.219 378.037 102.886 385.871 106.219C393.704 109.552 399.037 114.052 401.871 119.719C404.704 125.219 406.121 131.386 406.121 138.219C406.121 146.552 405.121 155.219 403.121 164.219C400.954 173.219 399.871 181.386 399.871 188.719C399.871 196.052 402.371 202.052 407.371 206.719C412.371 211.552 419.954 214.302 430.121 214.969V233.469C419.954 234.136 412.371 236.886 407.371 241.719C402.371 246.552 399.871 252.552 399.871 259.719C399.871 267.052 400.954 275.219 403.121 284.219C405.121 293.386 406.121 302.052 406.121 310.219C406.121 317.052 404.704 323.219 401.871 328.719C399.037 334.386 393.704 338.886 385.871 342.219C378.037 345.552 366.787 347.219 352.121 347.219V328.719C363.954 328.719 371.954 326.719 376.121 322.719C380.121 318.886 382.121 313.802 382.121 307.469C382.121 300.802 381.121 293.386 379.121 285.219C376.954 277.219 375.871 269.302 375.871 261.469C375.871 254.636 377.537 248.219 380.871 242.219C384.037 236.219 390.454 231.219 400.121 227.219V221.219C390.454 217.219 384.037 212.219 380.871 206.219C377.537 200.219 375.871 193.802 375.871 186.969C375.871 179.136 376.954 171.136 379.121 162.969C381.121 154.969 382.121 147.636 382.121 140.969C382.121 134.802 380.121 129.719 376.121 125.719C372.121 121.719 364.121 119.719 352.121 119.719V101.219Z"
      fill="white"></path>
    <defs>
      <linearGradient id="SvgjsLinearGradient1001" x1="512" y1="602.5" x2="220.5" y2="268"
        gradientUnits="userSpaceOnUse">
        <stop stop-color="#1A1A2E" stop-opacity="0"></stop>
        <stop offset="1" stop-color="#1A1A2E"></stop>
      </linearGradient>
    </defs>
  </svg>
</svg>
